<svg id="Red_Dot" data-name="Red Dot" xmlns="http://www.w3.org/2000/svg" width="201.113" height="201.113"
  viewBox="0 0 201.113 201.113">
  <g id="Path_1259" data-name="Path 1259" fill="red">
    <path
      d="M 100.5564193725586 197.6128387451172 C 93.96897125244141 197.6128387451172 87.38669586181641 196.9493865966797 80.99244689941406 195.6409454345703 C 74.76250457763672 194.3661193847656 68.63452911376953 192.4638671875 62.77875137329102 189.9870910644531 C 57.02853012084961 187.5549468994141 51.48214340209961 184.5444488525391 46.29369735717773 181.0391998291016 C 41.15364074707031 177.5666351318359 36.32003021240234 173.5785369873047 31.92716979980469 169.1856689453125 C 27.5343074798584 164.7927856445312 23.54619789123535 159.9591979980469 20.07364082336426 154.8191375732422 C 16.56839179992676 149.6306915283203 13.55789184570312 144.0843048095703 11.12575244903564 138.3340606689453 C 8.648946762084961 132.4783020019531 6.746725082397461 126.3503341674805 5.471891403198242 120.120361328125 C 4.163447380065918 113.7261123657227 3.50000262260437 107.1438674926758 3.50000262260437 100.5564193725586 C 3.50000262260437 93.96897125244141 4.163447380065918 87.38669586181641 5.471891403198242 80.99244689941406 C 6.746725082397461 74.76250457763672 8.648946762084961 68.63452911376953 11.12575244903564 62.77875137329102 C 13.55789184570312 57.02853012084961 16.56839179992676 51.48214340209961 20.07364082336426 46.29369735717773 C 23.54619789123535 41.15364074707031 27.5343074798584 36.32003021240234 31.92716979980469 31.92716979980469 C 36.32003021240234 27.5343074798584 41.15364074707031 23.54619789123535 46.29369735717773 20.07364082336426 C 51.48214340209961 16.56839179992676 57.02853012084961 13.55789184570312 62.77875137329102 11.12575244903564 C 68.63452911376953 8.648946762084961 74.76250457763672 6.746725082397461 80.99244689941406 5.471891403198242 C 87.38669586181641 4.163447380065918 93.96897125244141 3.50000262260437 100.5564193725586 3.50000262260437 C 107.4734191894531 3.50000262260437 114.3744506835938 4.231113910675049 121.0677795410156 5.673030376434326 C 127.5904769897461 7.078197002410889 133.9888916015625 9.173447608947754 140.0852508544922 11.90055847167969 C 146.0774536132812 14.58108615875244 151.8316650390625 17.89561462402344 157.1881408691406 21.7520866394043 C 162.5035552978516 25.57903099060059 167.46728515625 29.96814155578613 171.9414520263672 34.79753112792969 C 175.9120635986328 39.08319854736328 179.5137481689453 43.76608657836914 182.6465301513672 48.71617126464844 C 185.8138580322266 53.72089004516602 188.5326385498047 59.04777908325195 190.7273406982422 64.54891967773438 C 195.2962188720703 76.0009765625 197.6128387451172 88.11566925048828 197.6128387451172 100.5564193725586 C 197.6128387451172 107.1438674926758 196.9493865966797 113.7261123657227 195.6409454345703 120.120361328125 C 194.3661193847656 126.3503341674805 192.4638671875 132.4783020019531 189.9870910644531 138.3340606689453 C 187.5549468994141 144.0843048095703 184.5444488525391 149.6306915283203 181.0391998291016 154.8191375732422 C 177.5666351318359 159.9591979980469 173.5785369873047 164.7927856445312 169.1856689453125 169.1856689453125 C 164.7927856445312 173.5785369873047 159.9591979980469 177.5666351318359 154.8191375732422 181.0391998291016 C 149.6306915283203 184.5444488525391 144.0843048095703 187.5549468994141 138.3340606689453 189.9870910644531 C 132.4783020019531 192.4638671875 126.3503341674805 194.3661193847656 120.120361328125 195.6409454345703 C 113.7261123657227 196.9493865966797 107.1438674926758 197.6128387451172 100.5564193725586 197.6128387451172 Z"
      stroke="none" />
    <path
      d="M 100.5564193725586 6.999984741210938 C 48.96922302246094 6.999984741210938 6.999984741210938 48.96922302246094 6.999984741210938 100.5564193725586 C 6.999984741210938 152.1435852050781 48.96922302246094 194.1128234863281 100.5564193725586 194.1128234863281 C 152.1435852050781 194.1128234863281 194.1128234863281 152.1435852050781 194.1128234863281 100.5564193725586 C 194.1128234863281 76.90395355224609 185.3270874023438 54.39512634277344 169.3739471435547 37.17619323730469 C 151.3458862304688 17.71675109863281 126.9059829711914 6.999984741210938 100.5564193725586 6.999984741210938 M 100.5564193725586 -1.52587890625e-05 C 129.7126770019531 -1.52587890625e-05 155.9707183837891 12.4088134765625 174.5089569091797 32.41888427734375 C 190.9550476074219 50.169921875 201.1128234863281 74.17691802978516 201.1128234863281 100.5564193725586 C 201.1128234863281 156.0921936035156 156.0921936035156 201.1128234863281 100.5564193725586 201.1128234863281 C 45.02064514160156 201.1128234863281 -1.52587890625e-05 156.0921936035156 -1.52587890625e-05 100.5564193725586 C -1.52587890625e-05 45.02064514160156 45.02064514160156 -1.52587890625e-05 100.5564193725586 -1.52587890625e-05 Z"
      stroke="none" fill="#fff" />
  </g>
  <ellipse id="Ellipse_152" data-name="Ellipse 152" cx="70.351" cy="35.063" rx="70.351" ry="35.063"
    transform="translate(30.205 61.182)" fill="#fff" />
  <path id="Path_1257" data-name="Path 1257"
    d="M11.305,0A11.305,11.305,0,0,1,22.61,11.305c0,6.244-5.062,9.565-11.305,9.565S0,17.549,0,11.305A11.305,11.305,0,0,1,11.305,0Z"
    transform="translate(57.369 94.006)" fill="#000" />
  <path id="Path_1258" data-name="Path 1258"
    d="M11.305,0A11.305,11.305,0,0,1,22.61,11.305c0,6.244-5.653,8.167-11.305,8.167S0,17.549,0,11.305A11.305,11.305,0,0,1,11.305,0Z"
    transform="translate(120.595 93.979)" fill="#000" />
  <g id="Group_355" data-name="Group 355" transform="translate(47.287 146.593)">
    <ellipse id="Ellipse_156" data-name="Ellipse 156" cx="6.069" cy="11.688" rx="6.069" ry="11.688"
      transform="translate(0 0)" fill="#fff" />
    <ellipse id="Ellipse_158" data-name="Ellipse 158" cx="3.147" cy="4.72" rx="3.147" ry="4.72"
      transform="translate(3.147 12.587)" fill="#d21c1c" />
  </g>
  <circle id="Ellipse_162" data-name="Ellipse 162" cx="5" cy="5" r="5" transform="translate(64.586 102.785)"
    fill="#fff" />
  <circle id="Ellipse_163" data-name="Ellipse 163" cx="5" cy="5" r="5" transform="translate(126.586 102.785)"
    fill="#fff" />
  <g id="Group_356" data-name="Group 356" transform="translate(143.486 146.593)">
    <ellipse id="Ellipse_157" data-name="Ellipse 157" cx="5.619" cy="11.688" rx="5.619" ry="11.688"
      transform="translate(0 0)" fill="#fff" />
    <ellipse id="Ellipse_159" data-name="Ellipse 159" cx="3.147" cy="5.394" rx="3.147" ry="5.394"
      transform="translate(2.248 11.238)" fill="#d21c1c" />
  </g>
  <g id="Group_353" data-name="Group 353" transform="translate(158.934 13.965)">
    <g id="Path_1260" data-name="Path 1260" transform="translate(0 0)">
      <path
        d="M 5.212790966033936 9.425580978393555 C 2.889850854873657 9.425580978393555 1.000000953674316 7.535730838775635 1.000000953674316 5.212790966033936 C 1.000000953674316 2.889850854873657 2.889850854873657 1.000000953674316 5.212790966033936 1.000000953674316 C 7.535730838775635 1.000000953674316 9.425580978393555 2.889850854873657 9.425580978393555 5.212790966033936 C 9.425580978393555 7.535730838775635 7.535730838775635 9.425580978393555 5.212790966033936 9.425580978393555 Z"
        stroke="none" />
      <path
        d="M 5.212790966033936 2.000000953674316 C 3.441250801086426 2.000000953674316 2.000000953674316 3.441250801086426 2.000000953674316 5.212790966033936 C 2.000000953674316 6.984331130981445 3.441250801086426 8.425580978393555 5.212790966033936 8.425580978393555 C 6.984331130981445 8.425580978393555 8.425580978393555 6.984331130981445 8.425580978393555 5.212790966033936 C 8.425580978393555 3.441250801086426 6.984331130981445 2.000000953674316 5.212790966033936 2.000000953674316 M 5.212790966033936 9.5367431640625e-07 C 8.091731071472168 9.5367431640625e-07 10.42558097839355 2.333841323852539 10.42558097839355 5.212790966033936 C 10.42558097839355 8.091731071472168 8.091731071472168 10.42558097839355 5.212790966033936 10.42558097839355 C 2.333841323852539 10.42558097839355 9.5367431640625e-07 8.091731071472168 9.5367431640625e-07 5.212790966033936 C 9.5367431640625e-07 2.333841323852539 2.333841323852539 9.5367431640625e-07 5.212790966033936 9.5367431640625e-07 Z"
        stroke="none" fill="#fff" />
    </g>
    <g id="Ellipse_155" data-name="Ellipse 155" transform="translate(3.882 3.613)" stroke="#fff" stroke-width="2">
      <circle cx="1.798" cy="1.798" r="1.798" stroke="none" />
      <circle cx="1.798" cy="1.798" r="0.798" fill="none" />
    </g>
  </g>
  <line id="Line_136" data-name="Line 136" y1="7.399" x2="7.399" transform="translate(154.73 21.868)" fill="none"
    stroke="#000" stroke-width="3" />
  <g id="Group_354" data-name="Group 354" transform="translate(30.969 13.965)">
    <g id="Path_1261" data-name="Path 1261">
      <path
        d="M 5.212790966033936 9.425580978393555 C 2.889850854873657 9.425580978393555 1.000000953674316 7.535730838775635 1.000000953674316 5.212790966033936 C 1.000000953674316 2.889850854873657 2.889850854873657 1.000000953674316 5.212790966033936 1.000000953674316 C 7.535730838775635 1.000000953674316 9.425580978393555 2.889850854873657 9.425580978393555 5.212790966033936 C 9.425580978393555 7.535730838775635 7.535730838775635 9.425580978393555 5.212790966033936 9.425580978393555 Z"
        stroke="none" />
      <path
        d="M 5.212790966033936 2.000000953674316 C 3.441250801086426 2.000000953674316 2.000000953674316 3.441250801086426 2.000000953674316 5.212790966033936 C 2.000000953674316 6.984331130981445 3.441250801086426 8.425580978393555 5.212790966033936 8.425580978393555 C 6.984331130981445 8.425580978393555 8.425580978393555 6.984331130981445 8.425580978393555 5.212790966033936 C 8.425580978393555 3.441250801086426 6.984331130981445 2.000000953674316 5.212790966033936 2.000000953674316 M 5.212790966033936 9.5367431640625e-07 C 8.091731071472168 9.5367431640625e-07 10.42558097839355 2.333841323852539 10.42558097839355 5.212790966033936 C 10.42558097839355 8.091731071472168 8.091731071472168 10.42558097839355 5.212790966033936 10.42558097839355 C 2.333841323852539 10.42558097839355 9.5367431640625e-07 8.091731071472168 9.5367431640625e-07 5.212790966033936 C 9.5367431640625e-07 2.333841323852539 2.333841323852539 9.5367431640625e-07 5.212790966033936 9.5367431640625e-07 Z"
        stroke="none" fill="#fff" />
    </g>
    <g id="Ellipse_155-2" data-name="Ellipse 155" transform="translate(3.027 3.699)" stroke="#fff" stroke-width="2">
      <ellipse cx="1.85" cy="1.682" rx="1.85" ry="1.682" stroke="none" />
      <ellipse cx="1.85" cy="1.682" rx="0.85" ry="0.682" fill="none" />
    </g>
  </g>
  <line id="Line_137" data-name="Line 137" x1="7.399" y1="7.399" transform="translate(38.199 21.868)" fill="none"
    stroke="#000" stroke-width="3" />
</svg>