<svg xmlns="http://www.w3.org/2000/svg" width="201.113" height="201.113" viewBox="0 0 201.113 201.113">
  <g id="Red_Dot" data-name="Red Dot" transform="translate(-774.807 -205.897)">
    <g id="Path_1259" data-name="Path 1259" transform="translate(774.807 205.897)" fill="red">
      <path
        d="M 100.5564193725586 197.6128387451172 C 93.96897125244141 197.6128387451172 87.38669586181641 196.9493865966797 80.99244689941406 195.6409454345703 C 74.76250457763672 194.3661193847656 68.63452911376953 192.4638671875 62.77875137329102 189.9870910644531 C 57.02853012084961 187.5549468994141 51.48214340209961 184.5444488525391 46.29369735717773 181.0391998291016 C 41.15364074707031 177.5666351318359 36.32003021240234 173.5785369873047 31.92716979980469 169.1856689453125 C 27.5343074798584 164.7927856445312 23.54619789123535 159.9591979980469 20.07364082336426 154.8191375732422 C 16.56839179992676 149.6306915283203 13.55789184570312 144.0843048095703 11.12575244903564 138.3340606689453 C 8.648946762084961 132.4783020019531 6.746725082397461 126.3503341674805 5.471891403198242 120.120361328125 C 4.163447380065918 113.7261123657227 3.50000262260437 107.1438674926758 3.50000262260437 100.5564193725586 C 3.50000262260437 93.96897125244141 4.163447380065918 87.38669586181641 5.471891403198242 80.99244689941406 C 6.746725082397461 74.76250457763672 8.648946762084961 68.63452911376953 11.12575244903564 62.77875137329102 C 13.55789184570312 57.02853012084961 16.56839179992676 51.48214340209961 20.07364082336426 46.29369735717773 C 23.54619789123535 41.15364074707031 27.5343074798584 36.32003021240234 31.92716979980469 31.92716979980469 C 36.32003021240234 27.5343074798584 41.15364074707031 23.54619789123535 46.29369735717773 20.07364082336426 C 51.48214340209961 16.56839179992676 57.02853012084961 13.55789184570312 62.77875137329102 11.12575244903564 C 68.63452911376953 8.648946762084961 74.76250457763672 6.746725082397461 80.99244689941406 5.471891403198242 C 87.38669586181641 4.163447380065918 93.96897125244141 3.50000262260437 100.5564193725586 3.50000262260437 C 107.1438674926758 3.50000262260437 113.7261123657227 4.163447380065918 120.120361328125 5.471891403198242 C 126.3503341674805 6.746725082397461 132.4783020019531 8.648946762084961 138.3340606689453 11.12575244903564 C 144.0843048095703 13.55789184570312 149.6306915283203 16.56839179992676 154.8191375732422 20.07364082336426 C 159.9591979980469 23.54619789123535 164.7927856445312 27.5343074798584 169.1856689453125 31.92716979980469 C 173.5785369873047 36.32003021240234 177.5666351318359 41.15364074707031 181.0391998291016 46.29369735717773 C 184.5444488525391 51.48214340209961 187.5549468994141 57.02853012084961 189.9870910644531 62.77875137329102 C 192.4638671875 68.63452911376953 194.3661193847656 74.76250457763672 195.6409454345703 80.99244689941406 C 196.9493865966797 87.38669586181641 197.6128387451172 93.96897125244141 197.6128387451172 100.5564193725586 C 197.6128387451172 107.1438674926758 196.9493865966797 113.7261123657227 195.6409454345703 120.120361328125 C 194.3661193847656 126.3503341674805 192.4638671875 132.4783020019531 189.9870910644531 138.3340606689453 C 187.5549468994141 144.0843048095703 184.5444488525391 149.6306915283203 181.0391998291016 154.8191375732422 C 177.5666351318359 159.9591979980469 173.5785369873047 164.7927856445312 169.1856689453125 169.1856689453125 C 164.7927856445312 173.5785369873047 159.9591979980469 177.5666351318359 154.8191375732422 181.0391998291016 C 149.6306915283203 184.5444488525391 144.0843048095703 187.5549468994141 138.3340606689453 189.9870910644531 C 132.4783020019531 192.4638671875 126.3503341674805 194.3661193847656 120.120361328125 195.6409454345703 C 113.7261123657227 196.9493865966797 107.1438674926758 197.6128387451172 100.5564193725586 197.6128387451172 Z"
        stroke="none" />
      <path
        d="M 100.5564193725586 6.999984741210938 C 48.96922302246094 6.999984741210938 6.999984741210938 48.96922302246094 6.999984741210938 100.5564193725586 C 6.999984741210938 152.1435852050781 48.96922302246094 194.1128234863281 100.5564193725586 194.1128234863281 C 152.1435852050781 194.1128234863281 194.1128234863281 152.1435852050781 194.1128234863281 100.5564193725586 C 194.1128234863281 48.96922302246094 152.1435852050781 6.999984741210938 100.5564193725586 6.999984741210938 M 100.5564193725586 -1.52587890625e-05 C 156.0921936035156 -1.52587890625e-05 201.1128234863281 45.02064514160156 201.1128234863281 100.5564193725586 C 201.1128234863281 156.0921936035156 156.0921936035156 201.1128234863281 100.5564193725586 201.1128234863281 C 45.02064514160156 201.1128234863281 -1.52587890625e-05 156.0921936035156 -1.52587890625e-05 100.5564193725586 C -1.52587890625e-05 45.02064514160156 45.02064514160156 -1.52587890625e-05 100.5564193725586 -1.52587890625e-05 Z"
        stroke="none" fill="#fff" />
    </g>
    <g id="Ellipse_152" data-name="Ellipse 152" transform="translate(805.012 267.079)" fill="#fff" stroke="#707070"
      stroke-width="1">
      <ellipse cx="70.351" cy="35.063" rx="70.351" ry="35.063" stroke="none" />
      <ellipse cx="70.351" cy="35.063" rx="69.851" ry="34.563" fill="none" />
    </g>
    <g id="Path_1257" data-name="Path 1257" transform="translate(832.177 299.904)" fill="#000">
      <path
        d="M 0.6680920124053955 12.61978054046631 C 0.6176060438156128 12.52946758270264 0.5000010132789612 12.22078323364258 0.5000010132789612 11.30518817901611 C 0.5000010132789612 8.419017791748047 1.62394106388092 5.705597877502441 3.66477108001709 3.664767980575562 C 5.705601215362549 1.623937845230103 8.419020652770996 0.4999979138374329 11.30519104003906 0.4999979138374329 C 14.19136142730713 0.4999979138374329 16.90478134155273 1.623937845230103 18.94562149047852 3.664767980575562 C 20.98644065856934 5.705597877502441 22.11038017272949 8.419017791748047 22.11038017272949 11.30518817901611 C 22.11038017272949 12.22066593170166 21.99267387390137 12.52940273284912 21.94213104248047 12.61975288391113 C 21.86232948303223 12.59580039978027 21.65588760375977 12.50018501281738 21.23160171508789 12.11996746063232 C 20.81396102905273 11.74570751190186 20.32249069213867 11.22421836853027 19.75341033935547 10.62037754058838 C 17.61618041992188 8.352587699890137 14.68914127349854 5.246747970581055 11.30519104003906 5.246747970581055 C 7.92155122756958 5.246747970581055 4.994531154632568 8.352447509765625 2.857300996780396 10.62012767791748 C 2.288110971450806 11.22406768798828 1.796541094779968 11.74564743041992 1.378821015357971 12.11994743347168 C 0.9543243646621704 12.50033092498779 0.7478519678115845 12.59587478637695 0.6680920124053955 12.61978054046631 Z"
        stroke="none" />
      <path
        d="M 11.30519104003906 0.9999980926513672 C 5.622890472412109 0.9999980926513672 1.000001907348633 5.62288761138916 1.000001907348633 11.3051872253418 C 1.000001907348633 11.49131107330322 1.00506591796875 11.64727973937988 1.013006210327148 11.77744293212891 C 1.445878982543945 11.38871574401855 2.027494430541992 10.7715892791748 2.493440628051758 10.27719783782959 C 4.693130493164062 7.943227767944336 7.705720901489258 4.746747970581055 11.30519104003906 4.746747970581055 C 14.90507125854492 4.746747970581055 17.9177303314209 7.943417549133301 20.11747169494629 10.27752780914307 C 20.58322525024414 10.771728515625 21.16461753845215 11.38863563537598 21.59736633300781 11.77731704711914 C 21.60531044006348 11.64719200134277 21.61038017272949 11.49122428894043 21.61038017272949 11.3051872253418 C 21.61038017272949 5.62288761138916 16.98749160766602 0.9999980926513672 11.30519104003906 0.9999980926513672 M 11.30519104003906 -1.9073486328125e-06 C 17.54887008666992 -1.9073486328125e-06 22.61038017272949 5.061508178710938 22.61038017272949 11.3051872253418 C 22.61038017272949 17.54887962341309 17.54887008666992 5.746747970581055 11.30519104003906 5.746747970581055 C 5.061508178710938 5.746747970581055 1.9073486328125e-06 17.54887199401855 1.9073486328125e-06 11.3051872253418 C 1.9073486328125e-06 5.061508178710938 5.061511993408203 -1.9073486328125e-06 11.30519104003906 -1.9073486328125e-06 Z"
        stroke="none" fill="#707070" />
    </g>
    <g id="Path_1258" data-name="Path 1258" transform="translate(895.403 299.876)" fill="#000">
      <path
        d="M 0.7746710181236267 12.65529823303223 C 0.7501110434532166 12.65529823303223 0.7164710164070129 12.65529823303223 0.6586110591888428 12.5250883102417 C 0.5862510204315186 12.3622579574585 0.5000010132789612 12.01844787597656 0.5000010132789612 11.30518817901611 C 0.5000010132789612 8.419017791748047 1.62394106388092 5.705597877502441 3.66477108001709 3.664767980575562 C 5.705601215362549 1.623937845230103 8.419020652770996 0.4999979138374329 11.30519104003906 0.4999979138374329 C 14.19136142730713 0.4999979138374329 16.90478134155273 1.623937845230103 18.94562149047852 3.664767980575562 C 20.98644065856934 5.705597877502441 22.11038017272949 8.419017791748047 22.11038017272949 11.30518817901611 C 22.11038017272949 12.26998710632324 21.97913932800293 12.5710506439209 21.9293155670166 12.65055179595947 C 21.85437393188477 12.63232612609863 21.6406078338623 12.54517650604248 21.17974090576172 12.13363742828369 C 20.74575042724609 11.74609756469727 20.23891067504883 11.20744800567627 19.65204048156738 10.58374786376953 C 17.6282901763916 8.433008193969727 14.85668087005615 5.487467765808105 11.84159088134766 5.487467765808105 C 8.932881355285645 5.487467765808105 6.052690982818604 8.189817428588867 3.738420963287354 10.36118793487549 C 2.592330932617188 11.43650817871094 1.293331027030945 12.65529823303223 0.7746710181236267 12.65529823303223 Z"
        stroke="none" />
      <path
        d="M 11.30519104003906 0.9999980926513672 C 5.622890472412109 0.9999980926513672 1.000001907348633 5.62288761138916 1.000001907348633 11.3051872253418 C 1.000001907348633 11.62783813476562 1.018657684326172 11.85565567016602 1.04130744934082 12.0133171081543 C 1.182065963745117 11.9271297454834 1.379755020141602 11.78982257843018 1.649360656738281 11.57128810882568 C 2.153251647949219 11.16285800933838 2.757051467895508 10.59633827209473 3.39630126953125 9.996557235717773 C 5.774850845336914 7.764878273010254 8.735040664672852 4.987467765808105 11.84159088134766 4.987467765808105 C 15.07290077209473 4.987467765808105 17.93019104003906 8.024038314819336 20.01650047302246 10.24123764038086 C 20.51468658447266 10.77067565917969 21.14085006713867 11.43612766265869 21.59353828430176 11.83374118804932 C 21.60367774963379 11.69225692749023 21.61038017272949 11.51817321777344 21.61038017272949 11.3051872253418 C 21.61038017272949 5.62288761138916 16.98749160766602 0.9999980926513672 11.30519104003906 0.9999980926513672 M 11.30519104003906 -1.9073486328125e-06 C 17.54887008666992 -1.9073486328125e-06 22.61038017272949 5.061508178710938 22.61038017272949 11.3051872253418 C 22.61038017272949 17.54887771606445 17.49419021606445 5.987468719482422 11.84159088134766 5.987467765808105 C 6.189001083374023 5.987467765808105 1.9073486328125e-06 17.54887580871582 1.9073486328125e-06 11.3051872253418 C 1.9073486328125e-06 5.061508178710938 5.061511993408203 -1.9073486328125e-06 11.30519104003906 -1.9073486328125e-06 Z"
        stroke="none" fill="#707070" />
    </g>
    <g id="Group_355" data-name="Group 355" transform="translate(822.095 352.49)">
      <ellipse id="Ellipse_156" data-name="Ellipse 156" cx="6.069" cy="11.688" rx="6.069" ry="11.688"
        transform="translate(0 0)" fill="#fff" />
      <ellipse id="Ellipse_158" data-name="Ellipse 158" cx="3.147" cy="4.72" rx="3.147" ry="4.72"
        transform="translate(3.147 12.587)" fill="#d21c1c" />
    </g>
    <g id="Group_356" data-name="Group 356" transform="translate(918.294 352.49)">
      <ellipse id="Ellipse_157" data-name="Ellipse 157" cx="5.619" cy="11.688" rx="5.619" ry="11.688"
        transform="translate(0 0)" fill="#fff" />
      <ellipse id="Ellipse_159" data-name="Ellipse 159" cx="3.147" cy="5.394" rx="3.147" ry="5.394"
        transform="translate(2.248 11.238)" fill="#d21c1c" />
    </g>
    <g id="Group_353" data-name="Group 353" transform="translate(933.742 219.862)">
      <g id="Path_1260" data-name="Path 1260" transform="translate(0 0)">
        <path
          d="M 5.212790966033936 9.425580978393555 C 2.889850854873657 9.425580978393555 1.000000953674316 7.535730838775635 1.000000953674316 5.212790966033936 C 1.000000953674316 2.889850854873657 2.889850854873657 1.000000953674316 5.212790966033936 1.000000953674316 C 7.535730838775635 1.000000953674316 9.425580978393555 2.889850854873657 9.425580978393555 5.212790966033936 C 9.425580978393555 7.535730838775635 7.535730838775635 9.425580978393555 5.212790966033936 9.425580978393555 Z"
          stroke="none" />
        <path
          d="M 5.212790966033936 2.000000953674316 C 3.441250801086426 2.000000953674316 2.000000953674316 3.441250801086426 2.000000953674316 5.212790966033936 C 2.000000953674316 6.984331130981445 3.441250801086426 8.425580978393555 5.212790966033936 8.425580978393555 C 6.984331130981445 8.425580978393555 8.425580978393555 6.984331130981445 8.425580978393555 5.212790966033936 C 8.425580978393555 3.441250801086426 6.984331130981445 2.000000953674316 5.212790966033936 2.000000953674316 M 5.212790966033936 9.5367431640625e-07 C 8.091731071472168 9.5367431640625e-07 10.42558097839355 2.333841323852539 10.42558097839355 5.212790966033936 C 10.42558097839355 8.091731071472168 8.091731071472168 10.42558097839355 5.212790966033936 10.42558097839355 C 2.333841323852539 10.42558097839355 9.5367431640625e-07 8.091731071472168 9.5367431640625e-07 5.212790966033936 C 9.5367431640625e-07 2.333841323852539 2.333841323852539 9.5367431640625e-07 5.212790966033936 9.5367431640625e-07 Z"
          stroke="none" fill="#fff" />
      </g>
      <g id="Ellipse_155" data-name="Ellipse 155" transform="translate(3.882 3.613)" stroke="#fff" stroke-width="2">
        <circle cx="1.798" cy="1.798" r="1.798" stroke="none" />
        <circle cx="1.798" cy="1.798" r="0.798" fill="none" />
      </g>
    </g>
    <line id="Line_136" data-name="Line 136" y1="7.399" x2="7.399" transform="translate(929.538 227.765)" fill="none"
      stroke="#000" stroke-width="3" />
    <g id="Group_354" data-name="Group 354" transform="translate(805.776 219.862)">
      <g id="Path_1261" data-name="Path 1261">
        <path
          d="M 5.212790966033936 9.425580978393555 C 2.889850854873657 9.425580978393555 1.000000953674316 7.535730838775635 1.000000953674316 5.212790966033936 C 1.000000953674316 2.889850854873657 2.889850854873657 1.000000953674316 5.212790966033936 1.000000953674316 C 7.535730838775635 1.000000953674316 9.425580978393555 2.889850854873657 9.425580978393555 5.212790966033936 C 9.425580978393555 7.535730838775635 7.535730838775635 9.425580978393555 5.212790966033936 9.425580978393555 Z"
          stroke="none" />
        <path
          d="M 5.212790966033936 2.000000953674316 C 3.441250801086426 2.000000953674316 2.000000953674316 3.441250801086426 2.000000953674316 5.212790966033936 C 2.000000953674316 6.984331130981445 3.441250801086426 8.425580978393555 5.212790966033936 8.425580978393555 C 6.984331130981445 8.425580978393555 8.425580978393555 6.984331130981445 8.425580978393555 5.212790966033936 C 8.425580978393555 3.441250801086426 6.984331130981445 2.000000953674316 5.212790966033936 2.000000953674316 M 5.212790966033936 9.5367431640625e-07 C 8.091731071472168 9.5367431640625e-07 10.42558097839355 2.333841323852539 10.42558097839355 5.212790966033936 C 10.42558097839355 8.091731071472168 8.091731071472168 10.42558097839355 5.212790966033936 10.42558097839355 C 2.333841323852539 10.42558097839355 9.5367431640625e-07 8.091731071472168 9.5367431640625e-07 5.212790966033936 C 9.5367431640625e-07 2.333841323852539 2.333841323852539 9.5367431640625e-07 5.212790966033936 9.5367431640625e-07 Z"
          stroke="none" fill="#fff" />
      </g>
      <g id="Ellipse_155-2" data-name="Ellipse 155" transform="translate(3.027 3.699)" stroke="#fff" stroke-width="2">
        <ellipse cx="1.85" cy="1.682" rx="1.85" ry="1.682" stroke="none" />
        <ellipse cx="1.85" cy="1.682" rx="0.85" ry="0.682" fill="none" />
      </g>
    </g>
    <line id="Line_137" data-name="Line 137" x1="7.399" y1="7.399" transform="translate(813.007 227.765)" fill="none"
      stroke="#000" stroke-width="3" />
  </g>
</svg>