<svg xmlns="http://www.w3.org/2000/svg" width="201.113" height="201.113" viewBox="0 0 201.113 201.113">
  <g id="Red_Dot" data-name="Red Dot" transform="translate(-774.807 -205.897)">
    <g id="Path_1259" data-name="Path 1259" transform="translate(774.807 205.897)" fill="red">
      <path
        d="M 100.5564193725586 197.6128387451172 C 93.96897125244141 197.6128387451172 87.38669586181641 196.9493865966797 80.99244689941406 195.6409454345703 C 74.76250457763672 194.3661193847656 68.63452911376953 192.4638671875 62.77875137329102 189.9870910644531 C 57.02853012084961 187.5549468994141 51.48214340209961 184.5444488525391 46.29369735717773 181.0391998291016 C 41.15364074707031 177.5666351318359 36.32003021240234 173.5785369873047 31.92716979980469 169.1856689453125 C 27.5343074798584 164.7927856445312 23.54619789123535 159.9591979980469 20.07364082336426 154.8191375732422 C 16.56839179992676 149.6306915283203 13.55789184570312 144.0843048095703 11.12575244903564 138.3340606689453 C 8.648946762084961 132.4783020019531 6.746725082397461 126.3503341674805 5.471891403198242 120.120361328125 C 4.163447380065918 113.7261123657227 3.50000262260437 107.1438674926758 3.50000262260437 100.5564193725586 C 3.50000262260437 93.96897125244141 4.163447380065918 87.38669586181641 5.471891403198242 80.99244689941406 C 6.746725082397461 74.76250457763672 8.648946762084961 68.63452911376953 11.12575244903564 62.77875137329102 C 13.55789184570312 57.02853012084961 16.56839179992676 51.48214340209961 20.07364082336426 46.29369735717773 C 23.54619789123535 41.15364074707031 27.5343074798584 36.32003021240234 31.92716979980469 31.92716979980469 C 36.32003021240234 27.5343074798584 41.15364074707031 23.54619789123535 46.29369735717773 20.07364082336426 C 51.48214340209961 16.56839179992676 57.02853012084961 13.55789184570312 62.77875137329102 11.12575244903564 C 68.63452911376953 8.648946762084961 74.76250457763672 6.746725082397461 80.99244689941406 5.471891403198242 C 87.38669586181641 4.163447380065918 93.96897125244141 3.50000262260437 100.5564193725586 3.50000262260437 C 107.1438674926758 3.50000262260437 113.7261123657227 4.163447380065918 120.120361328125 5.471891403198242 C 126.3503341674805 6.746725082397461 132.4783020019531 8.648946762084961 138.3340606689453 11.12575244903564 C 144.0843048095703 13.55789184570312 149.6306915283203 16.56839179992676 154.8191375732422 20.07364082336426 C 159.9591979980469 23.54619789123535 164.7927856445312 27.5343074798584 169.1856689453125 31.92716979980469 C 173.5785369873047 36.32003021240234 177.5666351318359 41.15364074707031 181.0391998291016 46.29369735717773 C 184.5444488525391 51.48214340209961 187.5549468994141 57.02853012084961 189.9870910644531 62.77875137329102 C 192.4638671875 68.63452911376953 194.3661193847656 74.76250457763672 195.6409454345703 80.99244689941406 C 196.9493865966797 87.38669586181641 197.6128387451172 93.96897125244141 197.6128387451172 100.5564193725586 C 197.6128387451172 107.1438674926758 196.9493865966797 113.7261123657227 195.6409454345703 120.120361328125 C 194.3661193847656 126.3503341674805 192.4638671875 132.4783020019531 189.9870910644531 138.3340606689453 C 187.5549468994141 144.0843048095703 184.5444488525391 149.6306915283203 181.0391998291016 154.8191375732422 C 177.5666351318359 159.9591979980469 173.5785369873047 164.7927856445312 169.1856689453125 169.1856689453125 C 164.7927856445312 173.5785369873047 159.9591979980469 177.5666351318359 154.8191375732422 181.0391998291016 C 149.6306915283203 184.5444488525391 144.0843048095703 187.5549468994141 138.3340606689453 189.9870910644531 C 132.4783020019531 192.4638671875 126.3503341674805 194.3661193847656 120.120361328125 195.6409454345703 C 113.7261123657227 196.9493865966797 107.1438674926758 197.6128387451172 100.5564193725586 197.6128387451172 Z"
        stroke="none" />
      <path
        d="M 100.5564193725586 6.999984741210938 C 48.96922302246094 6.999984741210938 6.999984741210938 48.96922302246094 6.999984741210938 100.5564193725586 C 6.999984741210938 152.1435852050781 48.96922302246094 194.1128234863281 100.5564193725586 194.1128234863281 C 152.1435852050781 194.1128234863281 194.1128234863281 152.1435852050781 194.1128234863281 100.5564193725586 C 194.1128234863281 48.96922302246094 152.1435852050781 6.999984741210938 100.5564193725586 6.999984741210938 M 100.5564193725586 -1.52587890625e-05 C 156.0921936035156 -1.52587890625e-05 201.1128234863281 45.02064514160156 201.1128234863281 100.5564193725586 C 201.1128234863281 156.0921936035156 156.0921936035156 201.1128234863281 100.5564193725586 201.1128234863281 C 45.02064514160156 201.1128234863281 -1.52587890625e-05 156.0921936035156 -1.52587890625e-05 100.5564193725586 C -1.52587890625e-05 45.02064514160156 45.02064514160156 -1.52587890625e-05 100.5564193725586 -1.52587890625e-05 Z"
        stroke="none" fill="#fff" />
    </g>
    <g id="Ellipse_152" data-name="Ellipse 152" transform="translate(805.012 267.079)" fill="#fff" stroke="#707070"
      stroke-width="1">
      <ellipse cx="70.351" cy="35.063" rx="70.351" ry="35.063" stroke="none" />
      <ellipse cx="70.351" cy="35.063" rx="69.851" ry="34.563" fill="none" />
    </g>
    <g id="Path_1257" data-name="Path 1257" transform="translate(832.177 302.031)" fill="#000">
      <path
        d="M 11.30519104003906 9.701645851135254 C 5.347190856933594 9.701645851135254 0.5000010132789612 5.984846115112305 0.5000010132789612 1.416285991668701 C 0.5000010132789612 0.7555286288261414 0.6037840247154236 0.5485137701034546 0.636107861995697 0.5001072883605957 C 1.014336585998535 0.510577917098999 2.01741886138916 1.337661147117615 2.903080940246582 2.067925930023193 C 5.036291122436523 3.826856136322021 7.957830905914307 6.235795974731445 11.30519104003906 6.235795974731445 C 14.65296077728271 6.235795974731445 17.57456016540527 3.82671594619751 19.70783042907715 2.067676067352295 C 20.59321594238281 1.337610125541687 21.59593200683594 0.510779857635498 21.97411727905273 0.5001116991043091 C 22.0064868927002 0.5485395193099976 22.11038017272949 0.7555846571922302 22.11038017272949 1.416285991668701 C 22.11038017272949 5.984846115112305 17.26319122314453 9.701645851135254 11.30519104003906 9.701645851135254 Z"
        stroke="none" />
      <path
        d="M 11.30519104003906 9.201645851135254 C 16.98749160766602 9.201645851135254 21.61038017272949 5.709146022796631 21.61038017272949 1.416285991668701 C 21.61038017272949 1.343656897544861 21.60904502868652 1.278275609016418 21.60675048828125 1.219585537910461 C 21.1649055480957 1.514279842376709 20.52937316894531 2.038318157196045 20.02592086791992 2.453445911407471 C 17.83419036865234 4.260695934295654 14.83251094818115 6.735795974731445 11.30519104003906 6.735795974731445 C 7.778281211853027 6.735795974731445 4.776670932769775 4.260836124420166 2.585000991821289 2.453706026077271 C 2.08134126663208 2.038421630859375 1.445590138435364 1.514211058616638 1.003629922866821 1.219498157501221 C 1.001335024833679 1.278225779533386 1.000001072883606 1.343600153923035 1.000001072883606 1.416285991668701 C 1.000001072883606 5.709146022796631 5.622890949249268 9.201645851135254 11.30519104003906 9.201645851135254 M 11.30519104003906 10.20164585113525 C 5.061511039733887 10.20164585113525 1.040039023791905e-06 6.268306255340576 1.040039023791905e-06 1.416285991668701 C 1.040038910105068e-06 -3.435733556747437 5.061511039733887 5.735795497894287 11.30519104003906 5.735795974731445 C 17.54888153076172 5.735795974731445 22.61037826538086 -3.435736894607544 22.61038017272949 1.416285991668701 C 22.61038017272949 6.268306255340576 17.54888153076172 10.20164585113525 11.30519104003906 10.20164585113525 Z"
        stroke="none" fill="#707070" />
    </g>
    <g id="Path_1258" data-name="Path 1258" transform="translate(895.403 302.031)" fill="#000">
      <path
        d="M 11.30519104003906 9.701698303222656 C 5.347190856933594 9.701698303222656 0.5000010132789612 5.993148326873779 0.5000010132789612 1.434728264808655 C 0.5000010132789612 0.8966783285140991 0.5849010348320007 0.6681783199310303 0.635511040687561 0.5798583030700684 C 0.673581063747406 0.5134382843971252 0.6969810128211975 0.4999983012676239 0.7746710181236267 0.4999983012676239 C 1.328521013259888 0.4999983012676239 2.578011035919189 1.409128308296204 3.7863609790802 2.288318395614624 C 6.094951152801514 3.968048334121704 8.968070983886719 6.058518409729004 11.84159088134766 6.058518409729004 C 14.82025146484375 6.058518409729004 17.58644104003906 3.778798341751099 19.60622024536133 2.114218235015869 C 20.52431106567383 1.357588291168213 21.56490135192871 0.4999983012676239 21.96058082580566 0.4999983012676239 C 21.96169662475586 0.4999983012676239 21.96273422241211 0.5000110268592834 21.96369743347168 0.5000331997871399 C 21.99280738830566 0.5377413034439087 22.11038017272949 0.73365718126297 22.11038017272949 1.434728264808655 C 22.11038017272949 5.993148326873779 17.26319122314453 9.701698303222656 11.30519104003906 9.701698303222656 Z"
        stroke="none" />
      <path
        d="M 11.30519104003906 9.201698303222656 C 16.98749160766602 9.201698303222656 21.61038017272949 5.717448234558105 21.61038017272949 1.434728264808655 C 21.61038017272949 1.344777584075928 21.60830307006836 1.265900254249573 21.60486221313477 1.196919679641724 C 21.14533042907715 1.493717193603516 20.46198844909668 2.056876420974731 19.9242115020752 2.500078201293945 C 17.84597015380859 4.212828159332275 14.99973106384277 6.558518409729004 11.84159088134766 6.558518409729004 C 8.805420875549316 6.558518409729004 5.859381198883057 4.41498851776123 3.492191076278687 2.692628383636475 C 2.823540925979614 2.206108331680298 2.191961050033569 1.746578335762024 1.67349100112915 1.426878333091736 C 1.369154691696167 1.239214897155762 1.158212780952454 1.134034276008606 1.017427444458008 1.075081825256348 C 1.007404565811157 1.164353847503662 1.000001072883606 1.28198254108429 1.000001072883606 1.434728264808655 C 1.000001072883606 5.717448234558105 5.622890949249268 9.201698303222656 11.30519104003906 9.201698303222656 M 11.30519104003906 10.20169830322266 C 5.061511039733887 10.20169830322266 1.040039023791905e-06 6.276588439941406 1.040039023791905e-06 1.434728264808655 C 1.040039023791905e-06 -3.40714168548584 6.189001560211182 5.558518886566162 11.84159088134766 5.558518409729004 C 17.49419021606445 5.558518409729004 22.61037826538086 -3.407140016555786 22.61038017272949 1.434728264808655 C 22.61038017272949 6.276588439941406 17.54888153076172 10.20169830322266 11.30519104003906 10.20169830322266 Z"
        stroke="none" fill="#707070" />
    </g>
    <g id="Group_355" data-name="Group 355" transform="translate(822.095 352.49)">
      <ellipse id="Ellipse_156" data-name="Ellipse 156" cx="6.069" cy="11.688" rx="6.069" ry="11.688"
        transform="translate(0 0)" fill="#fff" />
      <ellipse id="Ellipse_158" data-name="Ellipse 158" cx="3.147" cy="4.72" rx="3.147" ry="4.72"
        transform="translate(3.147 12.587)" fill="#d21c1c" />
    </g>
    <g id="Group_356" data-name="Group 356" transform="translate(918.294 352.49)">
      <ellipse id="Ellipse_157" data-name="Ellipse 157" cx="5.619" cy="11.688" rx="5.619" ry="11.688"
        transform="translate(0 0)" fill="#fff" />
      <ellipse id="Ellipse_159" data-name="Ellipse 159" cx="3.147" cy="5.394" rx="3.147" ry="5.394"
        transform="translate(2.248 11.238)" fill="#d21c1c" />
    </g>
    <g id="Group_353" data-name="Group 353" transform="translate(933.742 219.862)">
      <g id="Path_1260" data-name="Path 1260" transform="translate(0 0)">
        <path
          d="M 5.212790966033936 9.425580978393555 C 2.889850854873657 9.425580978393555 1.000000953674316 7.535730838775635 1.000000953674316 5.212790966033936 C 1.000000953674316 2.889850854873657 2.889850854873657 1.000000953674316 5.212790966033936 1.000000953674316 C 7.535730838775635 1.000000953674316 9.425580978393555 2.889850854873657 9.425580978393555 5.212790966033936 C 9.425580978393555 7.535730838775635 7.535730838775635 9.425580978393555 5.212790966033936 9.425580978393555 Z"
          stroke="none" />
        <path
          d="M 5.212790966033936 2.000000953674316 C 3.441250801086426 2.000000953674316 2.000000953674316 3.441250801086426 2.000000953674316 5.212790966033936 C 2.000000953674316 6.984331130981445 3.441250801086426 8.425580978393555 5.212790966033936 8.425580978393555 C 6.984331130981445 8.425580978393555 8.425580978393555 6.984331130981445 8.425580978393555 5.212790966033936 C 8.425580978393555 3.441250801086426 6.984331130981445 2.000000953674316 5.212790966033936 2.000000953674316 M 5.212790966033936 9.5367431640625e-07 C 8.091731071472168 9.5367431640625e-07 10.42558097839355 2.333841323852539 10.42558097839355 5.212790966033936 C 10.42558097839355 8.091731071472168 8.091731071472168 10.42558097839355 5.212790966033936 10.42558097839355 C 2.333841323852539 10.42558097839355 9.5367431640625e-07 8.091731071472168 9.5367431640625e-07 5.212790966033936 C 9.5367431640625e-07 2.333841323852539 2.333841323852539 9.5367431640625e-07 5.212790966033936 9.5367431640625e-07 Z"
          stroke="none" fill="#fff" />
      </g>
      <g id="Ellipse_155" data-name="Ellipse 155" transform="translate(3.882 3.613)" stroke="#fff" stroke-width="2">
        <circle cx="1.798" cy="1.798" r="1.798" stroke="none" />
        <circle cx="1.798" cy="1.798" r="0.798" fill="none" />
      </g>
    </g>
    <line id="Line_136" data-name="Line 136" y1="7.399" x2="7.399" transform="translate(929.538 227.765)" fill="none"
      stroke="#000" stroke-width="3" />
    <g id="Group_354" data-name="Group 354" transform="translate(805.776 219.862)">
      <g id="Path_1261" data-name="Path 1261">
        <path
          d="M 5.212790966033936 9.425580978393555 C 2.889850854873657 9.425580978393555 1.000000953674316 7.535730838775635 1.000000953674316 5.212790966033936 C 1.000000953674316 2.889850854873657 2.889850854873657 1.000000953674316 5.212790966033936 1.000000953674316 C 7.535730838775635 1.000000953674316 9.425580978393555 2.889850854873657 9.425580978393555 5.212790966033936 C 9.425580978393555 7.535730838775635 7.535730838775635 9.425580978393555 5.212790966033936 9.425580978393555 Z"
          stroke="none" />
        <path
          d="M 5.212790966033936 2.000000953674316 C 3.441250801086426 2.000000953674316 2.000000953674316 3.441250801086426 2.000000953674316 5.212790966033936 C 2.000000953674316 6.984331130981445 3.441250801086426 8.425580978393555 5.212790966033936 8.425580978393555 C 6.984331130981445 8.425580978393555 8.425580978393555 6.984331130981445 8.425580978393555 5.212790966033936 C 8.425580978393555 3.441250801086426 6.984331130981445 2.000000953674316 5.212790966033936 2.000000953674316 M 5.212790966033936 9.5367431640625e-07 C 8.091731071472168 9.5367431640625e-07 10.42558097839355 2.333841323852539 10.42558097839355 5.212790966033936 C 10.42558097839355 8.091731071472168 8.091731071472168 10.42558097839355 5.212790966033936 10.42558097839355 C 2.333841323852539 10.42558097839355 9.5367431640625e-07 8.091731071472168 9.5367431640625e-07 5.212790966033936 C 9.5367431640625e-07 2.333841323852539 2.333841323852539 9.5367431640625e-07 5.212790966033936 9.5367431640625e-07 Z"
          stroke="none" fill="#fff" />
      </g>
      <g id="Ellipse_155-2" data-name="Ellipse 155" transform="translate(3.027 3.699)" stroke="#fff" stroke-width="2">
        <ellipse cx="1.85" cy="1.682" rx="1.85" ry="1.682" stroke="none" />
        <ellipse cx="1.85" cy="1.682" rx="0.85" ry="0.682" fill="none" />
      </g>
    </g>
    <line id="Line_137" data-name="Line 137" x1="7.399" y1="7.399" transform="translate(813.007 227.765)" fill="none"
      stroke="#000" stroke-width="3" />
  </g>
</svg>